<?xml version="1.0" standalone="no"?>
<!DOCTYPE svg PUBLIC "-//W3C//DTD SVG 20010904//EN"
 "http://www.w3.org/TR/2001/REC-SVG-20010904/DTD/svg10.dtd">
<svg version="1.0" xmlns="http://www.w3.org/2000/svg"
 width="172.000000pt" height="172.000000pt" viewBox="0 0 172.000000 172.000000"
 preserveAspectRatio="xMidYMid meet">
<metadata>
Created by potrace 1.11, written by Peter Selinger 2001-2013
</metadata>
<g transform="translate(0.000000,172.000000) scale(0.100000,-0.100000)"
fill="#000000" stroke="none">
<path d="M690 1690 c-503 -106 -802 -624 -638 -1105 95 -276 310 -479 589
-555 95 -26 268 -35 359 -18 619 111 914 801 567 1323 -118 176 -335 320 -547
360 -83 15 -245 13 -330 -5z m518 -365 c4 -126 -1 -153 -36 -190 -29 -32 -105
-127 -135 -169 -23 -33 -68 -35 -97 -4 -32 35 -24 58 42 128 94 99 115 133
113 177 l-1 38 -231 2 c-229 1 -231 1 -235 -20 -2 -12 -1 -34 2 -48 4 -20 301
-388 455 -563 6 -6 35 -40 65 -75 l55 -64 0 -126 0 -126 -335 -1 c-184 0 -340
2 -347 4 -8 2 -11 38 -11 118 2 128 -2 118 95 241 89 112 90 113 118 113 59 0
87 -81 41 -117 -13 -11 -49 -49 -80 -85 -50 -60 -56 -71 -56 -112 l0 -46 232
2 233 3 1 40 c1 36 -7 49 -71 125 -390 464 -494 590 -503 606 -12 23 -14 237
-2 244 5 3 161 5 347 5 l338 0 3 -100z"/>
</g>
</svg>
