<?xml version="1.0" encoding="utf-8"?>
<!-- Generator: Adobe Illustrator 16.0.0, SVG Export Plug-In . SVG Version: 6.00 Build 0)  -->
<!DOCTYPE svg PUBLIC "-//W3C//DTD SVG 1.1//EN" "http://www.w3.org/Graphics/SVG/1.1/DTD/svg11.dtd">
<svg version="1.1" id="Layer_1" xmlns="http://www.w3.org/2000/svg" xmlns:xlink="http://www.w3.org/1999/xlink" x="0px" y="0px"
	 width="845.958px" height="841.89px" viewBox="0 0 845.958 841.89" enable-background="new 0 0 845.958 841.89"
	 xml:space="preserve">
<circle fill="#D65F5F" cx="424.663" cy="420.946" r="412.989"/>
<rect x="291.99" y="277.32" fill="#9B161D" width="371.427" height="218.856"/>
<rect x="180.51" y="327.294" fill="#AA0000" width="165.627" height="249.007"/>
<path fill="#591818" d="M273.125,263.787v79.172h26.369v-52.793h355.664v200.436H339.031v28.627h343.253V263.787H273.125z"/>
<path fill="#591818" d="M338.682,319.552H187.971c-7.484,0-13.566,6.071-13.566,13.56v268.255c0,7.488,6.082,13.563,13.566,13.563
	h150.711c7.482,0,13.56-6.074,13.56-13.563V333.112C352.242,325.623,346.164,319.552,338.682,319.552z M263.327,599.107
	c-15.401,0-27.881-2.701-27.881-6.032c0-3.329,12.48-6.027,27.881-6.027c15.397,0,27.875,2.698,27.875,6.027
	C291.201,596.406,278.724,599.107,263.327,599.107z M339.031,560.744c0,5.784-5.179,10.476-11.551,10.476H199.148
	c-6.389,0-11.556-4.691-11.556-10.476V353.44c0-5.789,5.167-10.481,11.556-10.481H327.48c6.373,0,11.551,4.692,11.551,10.481
	V560.744z"/>
<polygon fill="#591818" points="531.583,529.213 531.583,511.697 424.581,511.697 424.581,529.213 403.483,529.213 403.483,558.415 
	551.925,558.415 551.925,529.213 "/>
</svg>
