<?xml version="1.0" encoding="utf-8"?>
<!-- Generator: Adobe Illustrator 16.0.0, SVG Export Plug-In . SVG Version: 6.00 Build 0)  -->
<!DOCTYPE svg PUBLIC "-//W3C//DTD SVG 1.1//EN" "http://www.w3.org/Graphics/SVG/1.1/DTD/svg11.dtd">
<svg version="1.1" id="Layer_1" xmlns="http://www.w3.org/2000/svg" xmlns:xlink="http://www.w3.org/1999/xlink" x="0px" y="0px"
	 width="845.958px" height="841.89px" viewBox="0 0 845.958 841.89" enable-background="new 0 0 845.958 841.89"
	 xml:space="preserve">
<circle fill="#1A3366" cx="429.979" cy="428.831" r="396.989"/>
<g>
	<path fill="#40EEF2" d="M224.401,438.119v-6.267c8.365-4.717,15.187-16.462,15.187-28.216c0-18.868,0-34.17-22.779-34.17
		c-22.781,0-22.781,15.302-22.781,34.17c0,11.754,6.823,23.499,15.187,28.216v6.267c-25.76,2.101-45.56,14.76-45.56,30.062h106.307
		C269.961,452.878,250.163,440.219,224.401,438.119z"/>
</g>
<g>
	<rect x="379.446" y="379.473" fill="#40EEF2" width="263" height="14.624"/>
	<rect x="321.446" y="414.206" fill="#40EEF2" width="321" height="14.624"/>
	<rect x="321.446" y="448.207" fill="#40EEF2" width="321" height="14.623"/>
</g>
<g>
	<g>
		<path fill="#55AAFF" d="M224.401,281.144v-6.266c8.365-4.716,15.187-16.462,15.187-28.216c0-18.869,0-34.17-22.779-34.17
			c-22.781,0-22.781,15.302-22.781,34.17c0,11.753,6.823,23.5,15.187,28.216v6.266c-25.76,2.102-45.56,14.76-45.56,30.062h106.307
			C269.961,295.904,250.163,283.246,224.401,281.144z"/>
	</g>
	<g>
		<path fill="#55AAFF" d="M224.401,596.679v-6.266c8.365-4.717,15.187-16.463,15.187-28.217c0-18.868,0-34.17-22.779-34.17
			c-22.781,0-22.781,15.302-22.781,34.17c0,11.754,6.823,23.5,15.187,28.217v6.266c-25.76,2.102-45.56,14.76-45.56,30.062h106.307
			C269.961,611.439,250.163,598.781,224.401,596.679z"/>
	</g>
	<rect x="378.446" y="227.849" fill="#55AAFF" width="263" height="14.624"/>
	<rect x="320.446" y="262.582" fill="#55AAFF" width="321" height="14.624"/>
	<rect x="320.446" y="296.582" fill="#55AAFF" width="321" height="14.624"/>
	<g>
		<rect x="379.446" y="543.384" fill="#55AAFF" width="263" height="14.624"/>
		<rect x="321.446" y="578.117" fill="#55AAFF" width="321" height="14.625"/>
		<rect x="321.446" y="612.117" fill="#55AAFF" width="321" height="14.625"/>
	</g>
</g>
<rect x="670.127" y="425.354" transform="matrix(0.7504 -0.661 0.661 0.7504 -122.357 557.4664)" fill="#40EEF2" width="13.672" height="30.784"/>
<rect x="698.816" y="389.007" transform="matrix(0.6512 0.7589 -0.7589 0.6512 570.1752 -386.9422)" fill="#40EEF2" width="14.379" height="75.525"/>
</svg>
