<?xml version="1.0" encoding="utf-8"?>
<!-- Generator: Adobe Illustrator 16.0.0, SVG Export Plug-In . SVG Version: 6.00 Build 0)  -->
<!DOCTYPE svg PUBLIC "-//W3C//DTD SVG 1.1//EN" "http://www.w3.org/Graphics/SVG/1.1/DTD/svg11.dtd">
<svg version="1.1" id="Layer_1" xmlns="http://www.w3.org/2000/svg" xmlns:xlink="http://www.w3.org/1999/xlink" x="0px" y="0px"
	 width="845.958px" height="841.89px" viewBox="0 0 845.958 841.89" enable-background="new 0 0 845.958 841.89"
	 xml:space="preserve">
<circle fill="#6FC172" cx="422.979" cy="420.945" r="396.989"/>
<rect x="571.067" y="261.6" fill="#407C19" width="11.44" height="374.169"/>
<rect x="543.422" y="630.049" fill="#407C19" width="66.255" height="9.057"/>
<g>
	<circle fill="#B5F7B7" cx="540.325" cy="376.234" r="5.481"/>
</g>
<rect x="538.776" y="255.403" fill="#B5F7B7" width="3.097" height="120.831"/>
<path fill="#4E6B4E" d="M672.36,261.6H480.504l59.585-75.551h72.448C672.36,261.6,672.36,261.6,672.36,261.6z"/>
<rect x="221.174" y="644.806" fill="#89EF89" width="35.456" height="11.035"/>
<rect x="449.767" y="644.806" fill="#89EF89" width="35.455" height="11.035"/>
<line fill="#6FC172" x1="379.505" y1="425.088" x2="420.572" y2="429.3"/>
<path fill="#213A21" d="M216.88,412.604c0,0-2.973-29.73,30.391-32.373c0,0,56.157,0.33,52.523,0h88.861h72.675
	c0,0,27.086-0.661,30.39,28.078v38.319c0,0-36.998-5.615-41.622,27.748l-0.33,71.353H255.529l0.33-70.36
	c0,0-1.32-27.749-32.702-28.409l-6.345,0.66L216.88,412.604z"/>
<path fill="#213A21" d="M459.677,486.268c0,0-5.184-30.24,25.054-31.829c2.146-0.11,1.327-0.392,3.847-0.194l10.3-0.041l3.189,0.103
	c0,0,0.764-0.121,3.581,0.028c9.434,0.497,29.608,4.763,26.804,32.484l-0.045,132.573c0,0,2.829,19.59-18.642,24.875l-4.084,0.539
	h-3.799h-5.616h-8.547l-5.078-0.055c0,0-2.579,0.158-5.918-0.067c-1.764-0.12-3.796-0.417-5.893-1.043
	c-7.274-2.176-15.315-8.338-15.492-24.908"/>
<path fill="#213A21" d="M173.936,486.268c0,0-5.184-30.24,25.053-31.829c2.146-0.11,1.328-0.392,3.847-0.194l10.301-0.041
	l3.189,0.103c0,0,0.762-0.121,3.582,0.028c9.433,0.497,29.608,4.763,26.802,32.484l-0.044,132.573c0,0,2.83,19.59-18.642,24.875
	l-4.084,0.539h-3.799h-5.615h-8.547l-5.08-0.055c0,0-2.578,0.158-5.917-0.067c-1.763-0.12-3.795-0.417-5.892-1.043
	c-7.276-2.176-15.316-8.338-15.492-24.908"/>
<path fill="#213A21" d="M255.364,557.479h194.568v59.462c0,0,3.991,25.237,31.547,27.393c28.851,2.258-257.539,0-257.539,0
	s23.116-2.131,30.185-22.19c0.969-2.749,1.806-7.677,1.569-11.396l0.022-14.12l-0.109-12.055l-0.141-15.691L255.364,557.479z"/>
</svg>
